<svg width="126" height="26" viewBox="0 0 126 26" fill="none" xmlns="http://www.w3.org/2000/svg">
<path d="M13.0293 0C16.4748 0.000182446 19.2676 2.79368 19.2676 6.23926C19.2674 9.68471 16.4747 12.4774 13.0293 12.4775C13.0219 12.4775 13.0142 12.4766 13.0068 12.4766V12.5225C13.0142 12.5224 13.0219 12.5225 13.0293 12.5225C16.4747 12.5226 19.2674 15.3153 19.2676 18.7607C19.2676 22.2063 16.4748 24.9998 13.0293 25C13.0219 25 13.0142 24.999 13.0068 24.999V25H12.2178V23.792L12.8672 22.7012H13.1689L13.4014 22.4688L13.3779 22.2598L13.6328 22.2363L13.8184 21.9814L13.8418 21.6562L13.9814 21.6328L14.167 21.4941L14.2129 21.2852L14.167 21.0527L14.2822 20.9131L14.3291 20.7041L14.2129 20.4492L14.0273 20.3096V19.5195L14.1201 19.334L13.958 19.125H13.749L12.9375 17.082L10.9424 14.5508L11.1738 13.9932V13.1348L10.5479 12.0664L7.85742 9.37305L8.34375 8.69922H8.73828L9.55078 9.44238L9.96777 9.37305L10.2227 8.88477L10.5479 8.83887L10.6875 8.74609V8.60645L10.873 8.51367H10.9424L11.0811 8.44434L11.1738 8.16504L11.7305 8.37402L12.0557 8.16504V7.12012L12.4961 6.81836L13.2852 4.84473L11.8936 2.56934L10.3389 1.89551L8.90039 2.1748L7.2998 3.45117L6.53516 4.72852L5.49121 5.12305L5.18945 6.0293L3.19434 8.11914L3.28711 8.51367L2.17383 9.18652V9.58203L1.89551 10L2.6377 11.7646L2.01074 25H0V0.0439453H12.2998C12.5391 0.0160878 12.7826 0 13.0293 0Z" fill="#F035C5"/>
<path d="M33.633 13.84V25H30.213V23.48C29.8664 23.9733 29.393 24.3733 28.793 24.68C28.2064 24.9733 27.553 25.12 26.833 25.12C25.9797 25.12 25.2264 24.9333 24.573 24.56C23.9197 24.1733 23.413 23.62 23.053 22.9C22.693 22.18 22.513 21.3333 22.513 20.36V13.84H25.913V19.9C25.913 20.6467 26.1064 21.2267 26.493 21.64C26.8797 22.0533 27.3997 22.26 28.053 22.26C28.7197 22.26 29.2464 22.0533 29.633 21.64C30.0197 21.2267 30.213 20.6467 30.213 19.9V13.84H33.633ZM42.8896 13.72C44.1963 13.72 45.2363 14.1467 46.0096 15C46.7963 15.84 47.1896 17 47.1896 18.48V25H43.7896V18.94C43.7896 18.1933 43.5963 17.6133 43.2096 17.2C42.8229 16.7867 42.3029 16.58 41.6496 16.58C40.9963 16.58 40.4763 16.7867 40.0896 17.2C39.7029 17.6133 39.5096 18.1933 39.5096 18.94V25H36.0896V13.84H39.5096V15.32C39.8563 14.8267 40.3229 14.44 40.9096 14.16C41.4963 13.8667 42.1563 13.72 42.8896 13.72ZM48.8862 19.4C48.8862 18.2533 49.0995 17.2467 49.5262 16.38C49.9662 15.5133 50.5595 14.8467 51.3062 14.38C52.0528 13.9133 52.8862 13.68 53.8062 13.68C54.5395 13.68 55.2062 13.8333 55.8062 14.14C56.4195 14.4467 56.8995 14.86 57.2462 15.38V10.2H60.6662V25H57.2462V23.4C56.9262 23.9333 56.4662 24.36 55.8662 24.68C55.2795 25 54.5928 25.16 53.8062 25.16C52.8862 25.16 52.0528 24.9267 51.3062 24.46C50.5595 23.98 49.9662 23.3067 49.5262 22.44C49.0995 21.56 48.8862 20.5467 48.8862 19.4ZM57.2462 19.42C57.2462 18.5667 57.0062 17.8933 56.5262 17.4C56.0595 16.9067 55.4862 16.66 54.8062 16.66C54.1262 16.66 53.5462 16.9067 53.0662 17.4C52.5995 17.88 52.3662 18.5467 52.3662 19.4C52.3662 20.2533 52.5995 20.9333 53.0662 21.44C53.5462 21.9333 54.1262 22.18 54.8062 22.18C55.4862 22.18 56.0595 21.9333 56.5262 21.44C57.0062 20.9467 57.2462 20.2733 57.2462 19.42ZM62.4604 19.4C62.4604 18.2533 62.6737 17.2467 63.1004 16.38C63.5404 15.5133 64.1337 14.8467 64.8804 14.38C65.6271 13.9133 66.4604 13.68 67.3804 13.68C68.1671 13.68 68.8537 13.84 69.4404 14.16C70.0404 14.48 70.5004 14.9 70.8204 15.42V13.84H74.2404V25H70.8204V23.42C70.4871 23.94 70.0204 24.36 69.4204 24.68C68.8337 25 68.1471 25.16 67.3604 25.16C66.4537 25.16 65.6271 24.9267 64.8804 24.46C64.1337 23.98 63.5404 23.3067 63.1004 22.44C62.6737 21.56 62.4604 20.5467 62.4604 19.4ZM70.8204 19.42C70.8204 18.5667 70.5804 17.8933 70.1004 17.4C69.6337 16.9067 69.0604 16.66 68.3804 16.66C67.7004 16.66 67.1204 16.9067 66.6404 17.4C66.1737 17.88 65.9404 18.5467 65.9404 19.4C65.9404 20.2533 66.1737 20.9333 66.6404 21.44C67.1204 21.9333 67.7004 22.18 68.3804 22.18C69.0604 22.18 69.6337 21.9333 70.1004 21.44C70.5804 20.9467 70.8204 20.2733 70.8204 19.42ZM76.1346 17.96C76.1346 16.5733 76.4346 15.34 77.0346 14.26C77.6346 13.1667 78.4679 12.32 79.5346 11.72C80.6146 11.1067 81.8346 10.8 83.1946 10.8C84.8613 10.8 86.2879 11.24 87.4746 12.12C88.6613 13 89.4546 14.2 89.8546 15.72H86.0946C85.8146 15.1333 85.4146 14.6867 84.8946 14.38C84.3879 14.0733 83.8079 13.92 83.1546 13.92C82.1013 13.92 81.2479 14.2867 80.5946 15.02C79.9413 15.7533 79.6146 16.7333 79.6146 17.96C79.6146 19.1867 79.9413 20.1667 80.5946 20.9C81.2479 21.6333 82.1013 22 83.1546 22C83.8079 22 84.3879 21.8467 84.8946 21.54C85.4146 21.2333 85.8146 20.7867 86.0946 20.2H89.8546C89.4546 21.72 88.6613 22.92 87.4746 23.8C86.2879 24.6667 84.8613 25.1 83.1946 25.1C81.8346 25.1 80.6146 24.8 79.5346 24.2C78.4679 23.5867 77.6346 22.74 77.0346 21.66C76.4346 20.58 76.1346 19.3467 76.1346 17.96ZM91.269 19.4C91.269 18.2533 91.4823 17.2467 91.909 16.38C92.349 15.5133 92.9423 14.8467 93.689 14.38C94.4357 13.9133 95.269 13.68 96.189 13.68C96.9757 13.68 97.6623 13.84 98.249 14.16C98.849 14.48 99.309 14.9 99.629 15.42V13.84H103.049V25H99.629V23.42C99.2957 23.94 98.829 24.36 98.229 24.68C97.6423 25 96.9557 25.16 96.169 25.16C95.2623 25.16 94.4357 24.9267 93.689 24.46C92.9423 23.98 92.349 23.3067 91.909 22.44C91.4823 21.56 91.269 20.5467 91.269 19.4ZM99.629 19.42C99.629 18.5667 99.389 17.8933 98.909 17.4C98.4423 16.9067 97.869 16.66 97.189 16.66C96.509 16.66 95.929 16.9067 95.449 17.4C94.9823 17.88 94.749 18.5467 94.749 19.4C94.749 20.2533 94.9823 20.9333 95.449 21.44C95.929 21.9333 96.509 22.18 97.189 22.18C97.869 22.18 98.4423 21.9333 98.909 21.44C99.389 20.9467 99.629 20.2733 99.629 19.42ZM108.943 15.7C109.343 15.0867 109.843 14.6067 110.443 14.26C111.043 13.9 111.71 13.72 112.443 13.72V17.34H111.503C110.65 17.34 110.01 17.5267 109.583 17.9C109.157 18.26 108.943 18.9 108.943 19.82V25H105.523V13.84H108.943V15.7ZM124.598 19.24C124.598 19.56 124.578 19.8933 124.538 20.24H116.798C116.851 20.9333 117.071 21.4667 117.458 21.84C117.858 22.2 118.345 22.38 118.918 22.38C119.771 22.38 120.365 22.02 120.698 21.3H124.338C124.151 22.0333 123.811 22.6933 123.318 23.28C122.838 23.8667 122.231 24.3267 121.498 24.66C120.765 24.9933 119.945 25.16 119.038 25.16C117.945 25.16 116.971 24.9267 116.118 24.46C115.265 23.9933 114.598 23.3267 114.118 22.46C113.638 21.5933 113.398 20.58 113.398 19.42C113.398 18.26 113.631 17.2467 114.098 16.38C114.578 15.5133 115.245 14.8467 116.098 14.38C116.951 13.9133 117.931 13.68 119.038 13.68C120.118 13.68 121.078 13.9067 121.918 14.36C122.758 14.8133 123.411 15.46 123.878 16.3C124.358 17.14 124.598 18.12 124.598 19.24ZM121.098 18.34C121.098 17.7533 120.898 17.2867 120.498 16.94C120.098 16.5933 119.598 16.42 118.998 16.42C118.425 16.42 117.938 16.5867 117.538 16.92C117.151 17.2533 116.911 17.7267 116.818 18.34H121.098Z" fill="#F035C5"/>
</svg>
