<svg width="75" height="60" viewBox="0 0 75 60" fill="none" xmlns="http://www.w3.org/2000/svg">
<path d="M42.6611 0C47.8984 0.000259239 52.1436 4.24611 52.1436 9.4834C52.1435 14.7206 47.8983 18.9665 42.6611 18.9668C42.6499 18.9668 42.6382 18.9659 42.627 18.9658V19.0332C42.6382 19.0332 42.6499 19.0332 42.6611 19.0332C47.8983 19.0335 52.1435 23.2794 52.1436 28.5166C52.1436 33.7539 47.8984 37.9997 42.6611 38C42.6499 38 42.6382 37.9991 42.627 37.999V38H41.4287V36.165L42.416 34.5059H42.875L43.2275 34.1533L43.1924 33.835L43.5801 33.7998L43.8623 33.4121L43.8975 32.918L44.1084 32.8818L44.3906 32.6709L44.4619 32.3525L44.3906 32L44.5674 31.7881L44.6377 31.4707L44.4619 31.082L44.1797 30.8701V29.6709L44.3203 29.3877L44.0732 29.0703H43.7559L42.5225 25.9648L39.4902 22.1172L39.8428 21.2705V19.9648L38.8906 18.3408L34.7998 14.2471L35.541 13.2236H36.1396L37.374 14.3525L38.0088 14.2471L38.3965 13.5059L38.8906 13.4346L39.1016 13.2939V13.082L39.3838 12.9404H39.4902L39.7012 12.835L39.8428 12.4111L40.6885 12.7295L41.1826 12.4111V10.8232L41.8525 10.3643L43.0508 7.36426L40.9355 3.90527L38.5732 2.88184L36.3867 3.30566L33.9541 5.24707L32.79 7.1875L31.2031 7.78809L30.7451 9.16406L27.7129 12.3408L27.8535 12.9404L26.1611 13.9648V14.5645L25.7383 15.1992L26.8662 17.8818L25.915 38H22.8564V0.0673828H41.5459C41.9116 0.0245465 42.2839 0 42.6611 0Z" fill="white"/>
<path d="M8.49872 50.692C8.80272 50.74 9.07872 50.864 9.32672 51.064C9.58272 51.264 9.78272 51.512 9.92672 51.808C10.0787 52.104 10.1547 52.42 10.1547 52.756C10.1547 53.18 10.0467 53.564 9.83072 53.908C9.61472 54.244 9.29872 54.512 8.88272 54.712C8.47472 54.904 7.99072 55 7.43072 55H4.31072V46.636H7.31072C7.87872 46.636 8.36272 46.732 8.76272 46.924C9.16272 47.108 9.46272 47.36 9.66272 47.68C9.86272 48 9.96272 48.36 9.96272 48.76C9.96272 49.256 9.82672 49.668 9.55472 49.996C9.29072 50.316 8.93872 50.548 8.49872 50.692ZM5.40272 50.248H7.23872C7.75072 50.248 8.14672 50.128 8.42672 49.888C8.70672 49.648 8.84672 49.316 8.84672 48.892C8.84672 48.468 8.70672 48.136 8.42672 47.896C8.14672 47.656 7.74272 47.536 7.21472 47.536H5.40272V50.248ZM7.33472 54.1C7.87872 54.1 8.30272 53.972 8.60672 53.716C8.91072 53.46 9.06272 53.104 9.06272 52.648C9.06272 52.184 8.90272 51.82 8.58272 51.556C8.26272 51.284 7.83472 51.148 7.29872 51.148H5.40272V54.1H7.33472ZM17.5021 48.424V55H16.4101V54.028C16.2021 54.364 15.9101 54.628 15.5341 54.82C15.1661 55.004 14.7581 55.096 14.3101 55.096C13.7981 55.096 13.3381 54.992 12.9301 54.784C12.5221 54.568 12.1981 54.248 11.9581 53.824C11.7261 53.4 11.6101 52.884 11.6101 52.276V48.424H12.6901V52.132C12.6901 52.78 12.8541 53.28 13.1821 53.632C13.5101 53.976 13.9581 54.148 14.5261 54.148C15.1101 54.148 15.5701 53.968 15.9061 53.608C16.2421 53.248 16.4101 52.724 16.4101 52.036V48.424H17.5021ZM22.5499 48.304C23.3499 48.304 23.9979 48.548 24.4939 49.036C24.9899 49.516 25.2379 50.212 25.2379 51.124V55H24.1579V51.28C24.1579 50.624 23.9939 50.124 23.6659 49.78C23.3379 49.428 22.8899 49.252 22.3219 49.252C21.7459 49.252 21.2859 49.432 20.9419 49.792C20.6059 50.152 20.4379 50.676 20.4379 51.364V55H19.3459V48.424H20.4379V49.36C20.6539 49.024 20.9459 48.764 21.3139 48.58C21.6899 48.396 22.1019 48.304 22.5499 48.304ZM26.6137 51.688C26.6137 51.016 26.7497 50.428 27.0217 49.924C27.2937 49.412 27.6657 49.016 28.1377 48.736C28.6177 48.456 29.1537 48.316 29.7457 48.316C30.2577 48.316 30.7337 48.436 31.1737 48.676C31.6137 48.908 31.9497 49.216 32.1817 49.6V46.12H33.2857V55H32.1817V53.764C31.9657 54.156 31.6457 54.48 31.2217 54.736C30.7977 54.984 30.3017 55.108 29.7337 55.108C29.1497 55.108 28.6177 54.964 28.1377 54.676C27.6657 54.388 27.2937 53.984 27.0217 53.464C26.7497 52.944 26.6137 52.352 26.6137 51.688ZM32.1817 51.7C32.1817 51.204 32.0817 50.772 31.8817 50.404C31.6817 50.036 31.4097 49.756 31.0657 49.564C30.7297 49.364 30.3577 49.264 29.9497 49.264C29.5417 49.264 29.1697 49.36 28.8337 49.552C28.4977 49.744 28.2297 50.024 28.0297 50.392C27.8297 50.76 27.7297 51.192 27.7297 51.688C27.7297 52.192 27.8297 52.632 28.0297 53.008C28.2297 53.376 28.4977 53.66 28.8337 53.86C29.1697 54.052 29.5417 54.148 29.9497 54.148C30.3577 54.148 30.7297 54.052 31.0657 53.86C31.4097 53.66 31.6817 53.376 31.8817 53.008C32.0817 52.632 32.1817 52.196 32.1817 51.7ZM34.723 51.688C34.723 51.016 34.859 50.428 35.131 49.924C35.403 49.412 35.775 49.016 36.247 48.736C36.727 48.456 37.259 48.316 37.843 48.316C38.419 48.316 38.919 48.44 39.343 48.688C39.767 48.936 40.083 49.248 40.291 49.624V48.424H41.395V55H40.291V53.776C40.075 54.16 39.751 54.48 39.319 54.736C38.895 54.984 38.399 55.108 37.831 55.108C37.247 55.108 36.719 54.964 36.247 54.676C35.775 54.388 35.403 53.984 35.131 53.464C34.859 52.944 34.723 52.352 34.723 51.688ZM40.291 51.7C40.291 51.204 40.191 50.772 39.991 50.404C39.791 50.036 39.519 49.756 39.175 49.564C38.839 49.364 38.467 49.264 38.059 49.264C37.651 49.264 37.279 49.36 36.943 49.552C36.607 49.744 36.339 50.024 36.139 50.392C35.939 50.76 35.839 51.192 35.839 51.688C35.839 52.192 35.939 52.632 36.139 53.008C36.339 53.376 36.607 53.66 36.943 53.86C37.279 54.052 37.651 54.148 38.059 54.148C38.467 54.148 38.839 54.052 39.175 53.86C39.519 53.66 39.791 53.376 39.991 53.008C40.191 52.632 40.291 52.196 40.291 51.7ZM42.8324 50.812C42.8324 49.996 43.0164 49.264 43.3844 48.616C43.7524 47.96 44.2524 47.448 44.8844 47.08C45.5244 46.712 46.2324 46.528 47.0084 46.528C47.9204 46.528 48.7164 46.748 49.3964 47.188C50.0764 47.628 50.5724 48.252 50.8844 49.06H49.5764C49.3444 48.556 49.0084 48.168 48.5684 47.896C48.1364 47.624 47.6164 47.488 47.0084 47.488C46.4244 47.488 45.9004 47.624 45.4364 47.896C44.9724 48.168 44.6084 48.556 44.3444 49.06C44.0804 49.556 43.9484 50.14 43.9484 50.812C43.9484 51.476 44.0804 52.06 44.3444 52.564C44.6084 53.06 44.9724 53.444 45.4364 53.716C45.9004 53.988 46.4244 54.124 47.0084 54.124C47.6164 54.124 48.1364 53.992 48.5684 53.728C49.0084 53.456 49.3444 53.068 49.5764 52.564H50.8844C50.5724 53.364 50.0764 53.984 49.3964 54.424C48.7164 54.856 47.9204 55.072 47.0084 55.072C46.2324 55.072 45.5244 54.892 44.8844 54.532C44.2524 54.164 43.7524 53.656 43.3844 53.008C43.0164 52.36 42.8324 51.628 42.8324 50.812ZM52.1019 51.688C52.1019 51.016 52.2379 50.428 52.5099 49.924C52.7819 49.412 53.1539 49.016 53.6259 48.736C54.1059 48.456 54.6379 48.316 55.2219 48.316C55.7979 48.316 56.2979 48.44 56.7219 48.688C57.1459 48.936 57.4619 49.248 57.6699 49.624V48.424H58.7739V55H57.6699V53.776C57.4539 54.16 57.1299 54.48 56.6979 54.736C56.2739 54.984 55.7779 55.108 55.2099 55.108C54.6259 55.108 54.0979 54.964 53.6259 54.676C53.1539 54.388 52.7819 53.984 52.5099 53.464C52.2379 52.944 52.1019 52.352 52.1019 51.688ZM57.6699 51.7C57.6699 51.204 57.5699 50.772 57.3699 50.404C57.1699 50.036 56.8979 49.756 56.5539 49.564C56.2179 49.364 55.8459 49.264 55.4379 49.264C55.0299 49.264 54.6579 49.36 54.3219 49.552C53.9859 49.744 53.7179 50.024 53.5179 50.392C53.3179 50.76 53.2179 51.192 53.2179 51.688C53.2179 52.192 53.3179 52.632 53.5179 53.008C53.7179 53.376 53.9859 53.66 54.3219 53.86C54.6579 54.052 55.0299 54.148 55.4379 54.148C55.8459 54.148 56.2179 54.052 56.5539 53.86C56.8979 53.66 57.1699 53.376 57.3699 53.008C57.5699 52.632 57.6699 52.196 57.6699 51.7ZM61.7113 49.492C61.9033 49.116 62.1753 48.824 62.5273 48.616C62.8873 48.408 63.3233 48.304 63.8353 48.304V49.432H63.5473C62.3233 49.432 61.7113 50.096 61.7113 51.424V55H60.6193V48.424H61.7113V49.492ZM71.0959 51.46C71.0959 51.668 71.0839 51.888 71.0599 52.12H65.8039C65.8439 52.768 66.0639 53.276 66.4639 53.644C66.8719 54.004 67.3639 54.184 67.9399 54.184C68.4119 54.184 68.8039 54.076 69.1159 53.86C69.4359 53.636 69.6599 53.34 69.7879 52.972H70.9639C70.7879 53.604 70.4359 54.12 69.9079 54.52C69.3799 54.912 68.7239 55.108 67.9399 55.108C67.3159 55.108 66.7559 54.968 66.2599 54.688C65.7719 54.408 65.3879 54.012 65.1079 53.5C64.8279 52.98 64.6879 52.38 64.6879 51.7C64.6879 51.02 64.8239 50.424 65.0959 49.912C65.3679 49.4 65.7479 49.008 66.2359 48.736C66.7319 48.456 67.2999 48.316 67.9399 48.316C68.5639 48.316 69.1159 48.452 69.5959 48.724C70.0759 48.996 70.4439 49.372 70.6999 49.852C70.9639 50.324 71.0959 50.86 71.0959 51.46ZM69.9679 51.232C69.9679 50.816 69.8759 50.46 69.6919 50.164C69.5079 49.86 69.2559 49.632 68.9359 49.48C68.6239 49.32 68.2759 49.24 67.8919 49.24C67.3399 49.24 66.8679 49.416 66.4759 49.768C66.0919 50.12 65.8719 50.608 65.8159 51.232H69.9679Z" fill="white"/>
</svg>
