<svg width="146" height="209" viewBox="0 0 146 209" fill="none" xmlns="http://www.w3.org/2000/svg">
<path d="M93.6416 0C114.591 0 131.575 16.983 131.575 37.9326C131.575 58.8824 114.591 75.8662 93.6416 75.8662C93.597 75.8662 93.5524 75.8644 93.5078 75.8643V76.1348C93.5524 76.1346 93.597 76.1338 93.6416 76.1338C114.591 76.1338 131.575 93.1176 131.575 114.067C131.575 135.017 114.591 152 93.6416 152C93.597 152 93.5524 151.998 93.5078 151.998V152H88.7148V144.659L92.6641 138.023H94.498L95.9082 136.611L95.7676 135.341L97.3184 135.2L98.4473 133.646L98.5879 131.67L99.4346 131.529L100.562 130.682L100.845 129.411L100.562 128L101.268 127.152L101.55 125.882L100.845 124.329L99.7168 123.481V118.682L100.28 117.553L99.293 116.282H98.0244L93.0879 103.858L80.958 88.4697L82.3682 85.0811V79.8574L78.5605 73.3633L62.1992 56.9873L65.1611 52.8926H67.5596L72.4961 57.4102L75.0342 56.9873L76.5859 54.0225L78.5605 53.7393L79.4062 53.1748V52.3281L80.5352 51.7637H80.958L81.8047 51.3398L82.3682 49.6455L85.7539 50.916L87.7275 49.6455V43.293L90.4082 41.457L95.2031 29.457L86.7412 15.6211L77.291 11.5273L68.5469 13.2217L58.8145 20.9863L54.1602 28.751L47.8135 31.1514L45.9795 36.6572L33.8506 49.3633L34.415 51.7637L27.6445 55.8574V58.2578L25.9521 60.7988L30.4658 71.5283L26.6572 152H14.4248V0.268555H89.1279C90.6081 0.0930378 92.1142 5.11091e-06 93.6416 0Z" fill="white"/>
<path d="M14.9974 190.384C15.6054 190.48 16.1574 190.728 16.6534 191.128C17.1654 191.528 17.5654 192.024 17.8534 192.616C18.1574 193.208 18.3094 193.84 18.3094 194.512C18.3094 195.36 18.0934 196.128 17.6614 196.816C17.2294 197.488 16.5974 198.024 15.7654 198.424C14.9494 198.808 13.9814 199 12.8614 199H6.62144V182.272H12.6214C13.7574 182.272 14.7254 182.464 15.5254 182.848C16.3254 183.216 16.9254 183.72 17.3254 184.36C17.7254 185 17.9254 185.72 17.9254 186.52C17.9254 187.512 17.6534 188.336 17.1094 188.992C16.5814 189.632 15.8774 190.096 14.9974 190.384ZM8.80544 189.496H12.4774C13.5014 189.496 14.2934 189.256 14.8534 188.776C15.4134 188.296 15.6934 187.632 15.6934 186.784C15.6934 185.936 15.4134 185.272 14.8534 184.792C14.2934 184.312 13.4854 184.072 12.4294 184.072H8.80544V189.496ZM12.6694 197.2C13.7574 197.2 14.6054 196.944 15.2134 196.432C15.8214 195.92 16.1254 195.208 16.1254 194.296C16.1254 193.368 15.8054 192.64 15.1654 192.112C14.5254 191.568 13.6694 191.296 12.5974 191.296H8.80544V197.2H12.6694ZM33.0042 185.848V199H30.8202V197.056C30.4042 197.728 29.8202 198.256 29.0682 198.64C28.3322 199.008 27.5162 199.192 26.6202 199.192C25.5962 199.192 24.6762 198.984 23.8602 198.568C23.0442 198.136 22.3962 197.496 21.9162 196.648C21.4522 195.8 21.2202 194.768 21.2202 193.552V185.848H23.3802V193.264C23.3802 194.56 23.7082 195.56 24.3642 196.264C25.0202 196.952 25.9162 197.296 27.0522 197.296C28.2202 197.296 29.1402 196.936 29.8122 196.216C30.4842 195.496 30.8202 194.448 30.8202 193.072V185.848H33.0042ZM43.0998 185.608C44.6998 185.608 45.9958 186.096 46.9878 187.072C47.9798 188.032 48.4758 189.424 48.4758 191.248V199H46.3158V191.56C46.3158 190.248 45.9878 189.248 45.3318 188.56C44.6758 187.856 43.7798 187.504 42.6438 187.504C41.4918 187.504 40.5718 187.864 39.8838 188.584C39.2118 189.304 38.8758 190.352 38.8758 191.728V199H36.6918V185.848H38.8758V187.72C39.3078 187.048 39.8918 186.528 40.6278 186.16C41.3798 185.792 42.2038 185.608 43.0998 185.608ZM51.2273 192.376C51.2273 191.032 51.4993 189.856 52.0433 188.848C52.5873 187.824 53.3313 187.032 54.2753 186.472C55.2353 185.912 56.3073 185.632 57.4913 185.632C58.5153 185.632 59.4673 185.872 60.3473 186.352C61.2273 186.816 61.8993 187.432 62.3633 188.2V181.24H64.5713V199H62.3633V196.528C61.9313 197.312 61.2913 197.96 60.4433 198.472C59.5953 198.968 58.6033 199.216 57.4673 199.216C56.2993 199.216 55.2353 198.928 54.2753 198.352C53.3313 197.776 52.5873 196.968 52.0433 195.928C51.4993 194.888 51.2273 193.704 51.2273 192.376ZM62.3633 192.4C62.3633 191.408 62.1633 190.544 61.7633 189.808C61.3633 189.072 60.8193 188.512 60.1313 188.128C59.4593 187.728 58.7153 187.528 57.8993 187.528C57.0833 187.528 56.3393 187.72 55.6673 188.104C54.9953 188.488 54.4593 189.048 54.0593 189.784C53.6593 190.52 53.4593 191.384 53.4593 192.376C53.4593 193.384 53.6593 194.264 54.0593 195.016C54.4593 195.752 54.9953 196.32 55.6673 196.72C56.3393 197.104 57.0833 197.296 57.8993 197.296C58.7153 197.296 59.4593 197.104 60.1313 196.72C60.8193 196.32 61.3633 195.752 61.7633 195.016C62.1633 194.264 62.3633 193.392 62.3633 192.4ZM67.4461 192.376C67.4461 191.032 67.7181 189.856 68.2621 188.848C68.8061 187.824 69.5501 187.032 70.4941 186.472C71.4541 185.912 72.5181 185.632 73.6861 185.632C74.8381 185.632 75.8381 185.88 76.6861 186.376C77.5341 186.872 78.1661 187.496 78.5821 188.248V185.848H80.7901V199H78.5821V196.552C78.1501 197.32 77.5021 197.96 76.6381 198.472C75.7901 198.968 74.7981 199.216 73.6621 199.216C72.4941 199.216 71.4381 198.928 70.4941 198.352C69.5501 197.776 68.8061 196.968 68.2621 195.928C67.7181 194.888 67.4461 193.704 67.4461 192.376ZM78.5821 192.4C78.5821 191.408 78.3821 190.544 77.9821 189.808C77.5821 189.072 77.0381 188.512 76.3501 188.128C75.6781 187.728 74.9341 187.528 74.1181 187.528C73.3021 187.528 72.5581 187.72 71.8861 188.104C71.2141 188.488 70.6781 189.048 70.2781 189.784C69.8781 190.52 69.6781 191.384 69.6781 192.376C69.6781 193.384 69.8781 194.264 70.2781 195.016C70.6781 195.752 71.2141 196.32 71.8861 196.72C72.5581 197.104 73.3021 197.296 74.1181 197.296C74.9341 197.296 75.6781 197.104 76.3501 196.72C77.0381 196.32 77.5821 195.752 77.9821 195.016C78.3821 194.264 78.5821 193.392 78.5821 192.4ZM83.6648 190.624C83.6648 188.992 84.0328 187.528 84.7688 186.232C85.5048 184.92 86.5048 183.896 87.7688 183.16C89.0488 182.424 90.4648 182.056 92.0168 182.056C93.8408 182.056 95.4328 182.496 96.7928 183.376C98.1528 184.256 99.1448 185.504 99.7688 187.12H97.1528C96.6888 186.112 96.0168 185.336 95.1368 184.792C94.2728 184.248 93.2328 183.976 92.0168 183.976C90.8488 183.976 89.8008 184.248 88.8728 184.792C87.9448 185.336 87.2168 186.112 86.6888 187.12C86.1608 188.112 85.8968 189.28 85.8968 190.624C85.8968 191.952 86.1608 193.12 86.6888 194.128C87.2168 195.12 87.9448 195.888 88.8728 196.432C89.8008 196.976 90.8488 197.248 92.0168 197.248C93.2328 197.248 94.2728 196.984 95.1368 196.456C96.0168 195.912 96.6888 195.136 97.1528 194.128H99.7688C99.1448 195.728 98.1528 196.968 96.7928 197.848C95.4328 198.712 93.8408 199.144 92.0168 199.144C90.4648 199.144 89.0488 198.784 87.7688 198.064C86.5048 197.328 85.5048 196.312 84.7688 195.016C84.0328 193.72 83.6648 192.256 83.6648 190.624ZM102.204 192.376C102.204 191.032 102.476 189.856 103.02 188.848C103.564 187.824 104.308 187.032 105.252 186.472C106.212 185.912 107.276 185.632 108.444 185.632C109.596 185.632 110.596 185.88 111.444 186.376C112.292 186.872 112.924 187.496 113.34 188.248V185.848H115.548V199H113.34V196.552C112.908 197.32 112.26 197.96 111.396 198.472C110.548 198.968 109.556 199.216 108.42 199.216C107.252 199.216 106.196 198.928 105.252 198.352C104.308 197.776 103.564 196.968 103.02 195.928C102.476 194.888 102.204 193.704 102.204 192.376ZM113.34 192.4C113.34 191.408 113.14 190.544 112.74 189.808C112.34 189.072 111.796 188.512 111.108 188.128C110.436 187.728 109.692 187.528 108.876 187.528C108.06 187.528 107.316 187.72 106.644 188.104C105.972 188.488 105.436 189.048 105.036 189.784C104.636 190.52 104.436 191.384 104.436 192.376C104.436 193.384 104.636 194.264 105.036 195.016C105.436 195.752 105.972 196.32 106.644 196.72C107.316 197.104 108.06 197.296 108.876 197.296C109.692 197.296 110.436 197.104 111.108 196.72C111.796 196.32 112.34 195.752 112.74 195.016C113.14 194.264 113.34 193.392 113.34 192.4ZM121.423 187.984C121.807 187.232 122.351 186.648 123.055 186.232C123.775 185.816 124.647 185.608 125.671 185.608V187.864H125.095C122.647 187.864 121.423 189.192 121.423 191.848V199H119.239V185.848H121.423V187.984ZM140.192 191.92C140.192 192.336 140.168 192.776 140.12 193.24H129.608C129.688 194.536 130.128 195.552 130.928 196.288C131.744 197.008 132.728 197.368 133.88 197.368C134.824 197.368 135.608 197.152 136.232 196.72C136.872 196.272 137.32 195.68 137.576 194.944H139.928C139.576 196.208 138.872 197.24 137.816 198.04C136.76 198.824 135.448 199.216 133.88 199.216C132.632 199.216 131.512 198.936 130.52 198.376C129.544 197.816 128.776 197.024 128.216 196C127.656 194.96 127.376 193.76 127.376 192.4C127.376 191.04 127.648 189.848 128.192 188.824C128.736 187.8 129.496 187.016 130.472 186.472C131.464 185.912 132.6 185.632 133.88 185.632C135.128 185.632 136.232 185.904 137.192 186.448C138.152 186.992 138.888 187.744 139.4 188.704C139.928 189.648 140.192 190.72 140.192 191.92ZM137.936 191.464C137.936 190.632 137.752 189.92 137.384 189.328C137.016 188.72 136.512 188.264 135.872 187.96C135.248 187.64 134.552 187.48 133.784 187.48C132.68 187.48 131.736 187.832 130.952 188.536C130.184 189.24 129.744 190.216 129.632 191.464H137.936Z" fill="white"/>
</svg>
