<svg width="25" height="24" viewBox="0 0 25 24" fill="none" xmlns="http://www.w3.org/2000/svg">
<path d="M19.5 14L20.4997 14.0256C20.4999 14.017 20.5 14.0085 20.5 14L19.5 14ZM19.4912 14.3438L20.49 14.3929C20.4904 14.385 20.4907 14.3772 20.4909 14.3693L19.4912 14.3438ZM18.9668 16.6787L19.8907 17.0614L19.8907 17.0614L18.9668 16.6787ZM17.4502 18.9502L18.1573 19.6573L18.1573 19.6573L17.4502 18.9502ZM15.1787 20.4668L15.5614 21.3907L15.5614 21.3907L15.1787 20.4668ZM9.82129 20.4668L9.4386 21.3907L9.43862 21.3907L9.82129 20.4668ZM7.5498 18.9502L6.8427 19.6573L6.84272 19.6573L7.5498 18.9502ZM6.0332 16.6787L5.10932 17.0614L5.10934 17.0614L6.0332 16.6787ZM5.5 14L4.50023 13.9787C4.50008 13.9858 4.5 13.9929 4.5 14L5.5 14ZM5.51367 13.3574L4.51464 13.3135C4.5143 13.3211 4.51406 13.3286 4.5139 13.3362L5.51367 13.3574ZM15.9118 6.07127L15.2705 5.30398L15.9118 6.07127ZM16.088 6.07107L16.7292 5.30369L16.088 6.07107ZM13.6079 8.53993L14.5553 8.21978L13.6079 8.53993ZM13.8931 8.56629L14.7617 9.06187L13.8931 8.56629ZM10.5026 3.09769L9.77015 3.77854L10.5026 3.09769ZM10.3087 3.0872L9.64335 2.34071L10.3087 3.0872ZM10.5026 3.09769L9.77015 3.77854C10.1192 4.154 11.6724 5.93604 12.6606 8.86007L13.6079 8.53993L14.5553 8.21978C13.4469 4.93986 11.7018 2.91898 11.235 2.41684L10.5026 3.09769ZM13.8931 8.56629L14.7617 9.06187C15.4993 7.76921 16.3296 7.02531 16.553 6.83857L15.9118 6.07127L15.2705 5.30398C14.925 5.59274 13.9137 6.51234 13.0246 8.07071L13.8931 8.56629ZM16.088 6.07107L15.4468 6.83845C15.89 7.20876 18.5 9.5786 18.5 13.9414H19.5H20.5C20.5 8.71906 17.3722 5.84094 16.7292 5.30369L16.088 6.07107ZM19.5 13.9414H18.5V14H19.5H20.5V13.9414H19.5ZM19.5 14L18.5003 13.9744L18.4915 14.3182L19.4912 14.3438L20.4909 14.3693L20.4997 14.0256L19.5 14ZM19.4912 14.3438L18.4924 14.2946C18.4586 14.9818 18.3068 15.659 18.0429 16.296L18.9668 16.6787L19.8907 17.0614C20.2425 16.212 20.4449 15.3091 20.49 14.3929L19.4912 14.3438ZM18.9668 16.6787L18.0429 16.296C17.7411 17.0245 17.2996 17.6865 16.7431 18.2431L17.4502 18.9502L18.1573 19.6573C18.9006 18.914 19.4889 18.0312 19.8907 17.0614L18.9668 16.6787ZM17.4502 18.9502L16.7431 18.2431C16.1865 18.7997 15.5245 19.2411 14.796 19.5429L15.1787 20.4668L15.5614 21.3907C16.5313 20.9889 17.414 20.4006 18.1573 19.6573L17.4502 18.9502ZM15.1787 20.4668L14.796 19.5429C14.0678 19.8445 13.2876 20 12.5 20V21V22C13.5508 22 14.5911 21.7926 15.5614 21.3907L15.1787 20.4668ZM12.5 21V20C11.7124 20 10.9322 19.8445 10.204 19.5429L9.82129 20.4668L9.43862 21.3907C10.4089 21.7926 11.4492 22 12.5 22V21ZM9.82129 20.4668L10.204 19.5429C9.47545 19.2411 8.81352 18.7997 8.25689 18.2431L7.5498 18.9502L6.84272 19.6573C7.58603 20.4006 8.46873 20.9889 9.4386 21.3907L9.82129 20.4668ZM7.5498 18.9502L8.25691 18.2431C7.70036 17.6865 7.25888 17.0245 6.95707 16.296L6.0332 16.6787L5.10934 17.0614C5.51108 18.0312 6.09938 18.914 6.8427 19.6573L7.5498 18.9502ZM6.0332 16.6787L6.95708 16.296C6.65549 15.5679 6.50003 14.7876 6.5 14L5.5 14L4.5 14C4.50004 15.0507 4.70741 16.0911 5.10932 17.0614L6.0332 16.6787ZM5.5 14L6.49977 14.0213L6.51345 13.3787L5.51367 13.3574L4.5139 13.3362L4.50023 13.9787L5.5 14ZM5.51367 13.3574L6.51271 13.4013C6.75732 7.83264 10.3641 4.37745 10.9741 3.83368L10.3087 3.0872L9.64335 2.34071C8.90255 3.00103 4.7952 6.92642 4.51464 13.3135L5.51367 13.3574ZM15.9118 6.07127L16.553 6.83857C16.2356 7.1039 15.7685 7.10722 15.4468 6.83845L16.088 6.07107L16.7292 5.30369C16.3042 4.9486 15.6912 4.95231 15.2705 5.30398L15.9118 6.07127ZM13.6079 8.53993L12.6606 8.86007C12.9848 9.81954 14.2763 9.91264 14.7617 9.06187L13.8931 8.56629L13.0246 8.07071C13.3778 7.45171 14.3165 7.51311 14.5553 8.21978L13.6079 8.53993ZM10.5026 3.09769L11.235 2.41684C10.8248 1.97552 10.1211 1.91486 9.64335 2.34071L10.3087 3.0872L10.9741 3.83368C10.6117 4.15676 10.0752 4.10674 9.77015 3.77854L10.5026 3.09769Z" fill="#E66400"/>
<path d="M11.958 11.4103L11.3311 10.6312L11.3311 10.6312L11.958 11.4103ZM13.042 11.4103L13.669 10.6312L13.6689 10.6312L13.042 11.4103ZM16.4541 16.3839L17.4432 16.2367L17.4432 16.2366L16.4541 16.3839ZM16.4541 16.3907L15.4637 16.5298L15.4656 16.5418L16.4541 16.3907ZM16.5 17.0001H17.5V17.0001L16.5 17.0001ZM8.5 17.0001L7.5 17.0001V17.0001H8.5ZM8.5459 16.3907L9.53449 16.5418L9.53618 16.5298L8.5459 16.3907ZM8.5459 16.3839L7.5568 16.2366L7.55679 16.2367L8.5459 16.3839ZM11.958 11.4103L12.5849 12.1893C12.5669 12.2038 12.5365 12.2169 12.5 12.2169C12.4635 12.2169 12.4331 12.2038 12.415 12.1893L13.042 11.4103L13.6689 10.6312C12.9825 10.0787 12.0175 10.0788 11.3311 10.6312L11.958 11.4103ZM13.042 11.4103L12.415 12.1893C12.8836 12.5664 13.5923 13.1946 14.2161 13.9777C14.8473 14.77 15.3336 15.6489 15.465 16.5312L16.4541 16.3839L17.4432 16.2366C17.239 14.8653 16.5207 13.6608 15.7804 12.7315C15.0327 11.7929 14.2031 11.0611 13.669 10.6312L13.042 11.4103ZM16.4541 16.3839L15.465 16.5311C15.4595 16.4941 15.4568 16.4616 15.4555 16.4354C15.4541 16.4093 15.4541 16.3871 15.4543 16.3707C15.4545 16.3543 15.4552 16.3412 15.4556 16.3335C15.4558 16.3296 15.456 16.3264 15.4561 16.3245C15.4561 16.3235 15.4562 16.3227 15.4562 16.3222C15.4562 16.3219 15.4563 16.3217 15.4563 16.3216C15.4563 16.3215 15.4563 16.3215 15.4563 16.3215C15.4563 16.3214 15.4563 16.3214 15.4563 16.3214C15.4563 16.3211 15.4562 16.3227 15.4561 16.3244C15.456 16.3262 15.4558 16.3294 15.4556 16.3333C15.4551 16.3409 15.4545 16.354 15.4542 16.3702C15.4539 16.3865 15.4539 16.4085 15.455 16.4345C15.4562 16.4606 15.4586 16.4929 15.4638 16.5298L16.4541 16.3907L17.4444 16.2517C17.4495 16.288 17.4519 16.3198 17.453 16.3453C17.4542 16.3707 17.4541 16.3922 17.4538 16.4079C17.4535 16.4236 17.4529 16.4361 17.4525 16.443C17.4523 16.4467 17.4522 16.4496 17.4521 16.4512C17.452 16.4525 17.4519 16.4538 17.4519 16.4532C17.4519 16.4531 17.4521 16.4514 17.4522 16.4493C17.4523 16.4471 17.4525 16.4436 17.4528 16.4393C17.4532 16.4311 17.4538 16.4174 17.4541 16.4005C17.4543 16.3835 17.4543 16.3607 17.4529 16.334C17.4515 16.3072 17.4488 16.2742 17.4432 16.2367L16.4541 16.3839ZM16.4541 16.3907L15.4656 16.5418C15.4882 16.69 15.5 16.843 15.5 17.0001L16.5 17.0001L17.5 17.0001C17.5 16.7429 17.4807 16.4889 17.4426 16.2396L16.4541 16.3907ZM16.5 17.0001H15.5C15.5 18.657 14.1569 20.0001 12.5 20.0001V21.0001V22.0001C15.2614 22.0001 17.5 19.7615 17.5 17.0001H16.5ZM12.5 21.0001V20.0001C10.8431 20.0001 9.5 18.657 9.5 17.0001H8.5H7.5C7.5 19.7615 9.73858 22.0001 12.5 22.0001V21.0001ZM8.5 17.0001L9.5 17.0001C9.5 16.843 9.51178 16.69 9.53442 16.5418L8.5459 16.3907L7.55738 16.2396C7.51929 16.4889 7.5 16.7429 7.5 17.0001L8.5 17.0001ZM8.5459 16.3907L9.53618 16.5298C9.54136 16.4929 9.54381 16.4606 9.54498 16.4345C9.54614 16.4085 9.54611 16.3865 9.5458 16.3702C9.5455 16.354 9.54486 16.3409 9.54444 16.3333C9.54423 16.3294 9.54403 16.3262 9.54391 16.3244C9.5438 16.3227 9.5437 16.3211 9.54372 16.3214C9.54372 16.3214 9.54372 16.3214 9.54372 16.3215C9.54372 16.3215 9.54373 16.3215 9.54373 16.3216C9.54374 16.3217 9.54375 16.3219 9.54377 16.3222C9.5438 16.3227 9.54385 16.3235 9.54391 16.3244C9.54403 16.3264 9.54423 16.3296 9.54444 16.3335C9.54484 16.3412 9.54545 16.3543 9.5457 16.3707C9.54594 16.3871 9.54586 16.4093 9.54453 16.4354C9.5432 16.4617 9.54051 16.4941 9.535 16.5311L8.5459 16.3839L7.55679 16.2367C7.55121 16.2742 7.54847 16.3072 7.54711 16.334C7.54575 16.3607 7.54566 16.3835 7.54592 16.4005C7.54617 16.4174 7.5468 16.4311 7.54724 16.4393C7.54746 16.4436 7.54767 16.4471 7.54781 16.4493C7.54794 16.4514 7.54806 16.4531 7.54807 16.4532C7.54811 16.4538 7.54802 16.4525 7.54793 16.4512C7.54783 16.4496 7.54765 16.4467 7.54745 16.4431C7.54707 16.4361 7.54645 16.4236 7.54616 16.4079C7.54586 16.3922 7.54583 16.3707 7.54697 16.3453C7.54811 16.3198 7.55051 16.288 7.55561 16.2517L8.5459 16.3907ZM8.5459 16.3839L9.535 16.5312C9.66635 15.6489 10.1527 14.7701 10.7839 13.9777C11.4076 13.1947 12.1164 12.5664 12.585 12.1893L11.958 11.4103L11.3311 10.6312C10.7968 11.0611 9.96728 11.7929 9.21956 12.7315C8.47929 13.6608 7.76097 14.8653 7.5568 16.2366L8.5459 16.3839Z" fill="#E66400"/>
</svg>
