<svg width="25" height="24" viewBox="0 0 25 24" fill="none" xmlns="http://www.w3.org/2000/svg">
<path d="M12.5 4L11.3522 5.91303C10.4498 7.41704 9.99857 8.16905 9.99857 9C9.99857 9.83095 10.4498 10.583 11.3522 12.087L12.0713 13.2854C12.2627 13.6045 12.3585 13.7641 12.5 13.7641C12.6415 13.7641 12.7373 13.6045 12.9287 13.2854L13.6478 12.087C14.5502 10.583 15.0014 9.83095 15.0014 9C15.0014 8.16905 14.5502 7.41704 13.6478 5.91303L12.5 4ZM12.5 4V2" stroke="#E6E600" stroke-width="2"/>
<path d="M20.6605 12.5981L18.4299 12.5606C16.6762 12.5311 15.7993 12.5163 15.0797 12.9318C14.3601 13.3473 13.9344 14.114 13.0831 15.6475L12.4047 16.8695C12.2241 17.1949 12.1338 17.3575 12.2046 17.4801C12.2754 17.6027 12.4614 17.6058 12.8335 17.6121L14.2309 17.6356C15.9846 17.6651 16.8615 17.6799 17.5811 17.2644C18.3007 16.8489 18.7264 16.0821 19.5777 14.5486L20.6605 12.5981ZM20.6605 12.5981L22.3926 11.5981" stroke="#E6E600" stroke-width="2"/>
<path d="M4.33947 12.5981L6.57011 12.5606C8.32383 12.5311 9.20069 12.5163 9.92031 12.9318C10.6399 13.3473 11.0656 14.114 11.9169 15.6475L12.5953 16.8695C12.7759 17.1949 12.8662 17.3575 12.7954 17.4801C12.7246 17.6027 12.5386 17.6058 12.1665 17.6121L10.7691 17.6356C9.01537 17.6651 8.13851 17.6799 7.41889 17.2644C6.69926 16.8489 6.2736 16.0821 5.42229 14.5486L4.33947 12.5981ZM4.33947 12.5981L2.60742 11.5981" stroke="#E6E600" stroke-width="2"/>
<path d="M12.5 15V22.5" stroke="#E6E600" stroke-width="2"/>
</svg>
