<svg width="25" height="24" viewBox="0 0 25 24" fill="none" xmlns="http://www.w3.org/2000/svg">
<path d="M12.5 18C12.0597 18 11.6318 17.8547 11.2825 17.5867C10.9332 17.3187 10.6821 16.9429 10.5681 16.5176" stroke="#A13E00" stroke-width="2" stroke-linecap="round"/>
<path d="M10.9243 4.67868C11.5553 3.60606 11.8707 3.06975 12.3223 2.98822C12.4398 2.967 12.5602 2.967 12.6777 2.98822C13.1293 3.06975 13.4447 3.60606 14.0757 4.67868L15.744 7.51482C16.91 9.49693 17.8197 11.619 18.4515 13.8301V13.8301C19.4781 17.4232 16.7801 21 13.0432 21H11.9568C8.21989 21 5.52193 17.4232 6.54854 13.8301V13.8301C7.1803 11.619 8.09004 9.49693 9.25599 7.51482L10.9243 4.67868Z" stroke="#A13E00" stroke-width="2"/>
</svg>
